<mxfile host="app.diagrams.net" modified="2021-04-17T03:16:08.828Z" agent="5.0 (Windows NT 10.0; Win64; x64) AppleWebKit/537.36 (KHTML, like Gecko) Chrome/90.0.4430.72 Safari/537.36" etag="J18RI5DpP2qzwwY_VDef" version="14.4.4" type="github">
  <diagram id="NtNVD2hnSGQg9UJDUNFN" name="Page-1">
    <mxGraphModel dx="1038" dy="608" grid="1" gridSize="10" guides="1" tooltips="1" connect="1" arrows="1" fold="1" page="1" pageScale="1" pageWidth="850" pageHeight="1100" math="0" shadow="0">
      <root>
        <mxCell id="0" />
        <mxCell id="1" parent="0" />
        <mxCell id="5cAc0Jf2YwoJ_Aimk7Pw-1" value="User" style="shape=umlActor;verticalLabelPosition=bottom;verticalAlign=top;html=1;outlineConnect=0;" vertex="1" parent="1">
          <mxGeometry x="100" y="380" width="30" height="60" as="geometry" />
        </mxCell>
        <mxCell id="5cAc0Jf2YwoJ_Aimk7Pw-4" value="Take Picture" style="ellipse;whiteSpace=wrap;html=1;" vertex="1" parent="1">
          <mxGeometry x="390" y="300" width="140" height="70" as="geometry" />
        </mxCell>
        <mxCell id="5cAc0Jf2YwoJ_Aimk7Pw-5" value="Choice Selection" style="ellipse;whiteSpace=wrap;html=1;" vertex="1" parent="1">
          <mxGeometry x="390" y="410" width="140" height="70" as="geometry" />
        </mxCell>
        <mxCell id="5cAc0Jf2YwoJ_Aimk7Pw-6" value="Request Recomendation" style="ellipse;whiteSpace=wrap;html=1;" vertex="1" parent="1">
          <mxGeometry x="200" y="350" width="140" height="70" as="geometry" />
        </mxCell>
        <mxCell id="5cAc0Jf2YwoJ_Aimk7Pw-7" value="Create&amp;nbsp; Profile" style="ellipse;whiteSpace=wrap;html=1;" vertex="1" parent="1">
          <mxGeometry x="200" y="170" width="140" height="70" as="geometry" />
        </mxCell>
        <mxCell id="5cAc0Jf2YwoJ_Aimk7Pw-13" value="Server DB" style="shape=umlActor;verticalLabelPosition=bottom;verticalAlign=top;html=1;" vertex="1" parent="1">
          <mxGeometry x="730" y="360" width="30" height="60" as="geometry" />
        </mxCell>
        <mxCell id="5cAc0Jf2YwoJ_Aimk7Pw-14" value="Add details" style="ellipse;whiteSpace=wrap;html=1;" vertex="1" parent="1">
          <mxGeometry x="390" y="170" width="140" height="70" as="geometry" />
        </mxCell>
        <mxCell id="5cAc0Jf2YwoJ_Aimk7Pw-15" value="Get Recomendation" style="ellipse;whiteSpace=wrap;html=1;" vertex="1" parent="1">
          <mxGeometry x="380" y="620" width="140" height="70" as="geometry" />
        </mxCell>
        <mxCell id="5cAc0Jf2YwoJ_Aimk7Pw-21" value="&amp;lt;&amp;lt;Include&amp;gt;&amp;gt;" style="endArrow=open;endSize=12;dashed=1;html=1;exitX=0;exitY=0.5;exitDx=0;exitDy=0;entryX=1;entryY=1;entryDx=0;entryDy=0;" edge="1" parent="1" source="5cAc0Jf2YwoJ_Aimk7Pw-5" target="5cAc0Jf2YwoJ_Aimk7Pw-6">
          <mxGeometry x="-0.1886" y="-1" width="160" relative="1" as="geometry">
            <mxPoint x="270" y="410" as="sourcePoint" />
            <mxPoint x="430" y="410" as="targetPoint" />
            <mxPoint as="offset" />
          </mxGeometry>
        </mxCell>
        <mxCell id="5cAc0Jf2YwoJ_Aimk7Pw-22" value="&amp;lt;&amp;lt;Include&amp;gt;&amp;gt;" style="endArrow=open;endSize=12;dashed=1;html=1;exitX=0;exitY=0.5;exitDx=0;exitDy=0;entryX=1;entryY=0;entryDx=0;entryDy=0;" edge="1" parent="1" source="5cAc0Jf2YwoJ_Aimk7Pw-4" target="5cAc0Jf2YwoJ_Aimk7Pw-6">
          <mxGeometry x="-0.1886" y="-1" width="160" relative="1" as="geometry">
            <mxPoint x="400" y="455" as="sourcePoint" />
            <mxPoint x="329.4974746830583" y="419.74873734152914" as="targetPoint" />
            <mxPoint as="offset" />
          </mxGeometry>
        </mxCell>
        <mxCell id="5cAc0Jf2YwoJ_Aimk7Pw-23" value="" style="endArrow=none;html=1;exitX=1;exitY=0.3333333333333333;exitDx=0;exitDy=0;exitPerimeter=0;entryX=0;entryY=0.5;entryDx=0;entryDy=0;" edge="1" parent="1" source="5cAc0Jf2YwoJ_Aimk7Pw-1" target="5cAc0Jf2YwoJ_Aimk7Pw-6">
          <mxGeometry width="50" height="50" relative="1" as="geometry">
            <mxPoint x="130" y="330" as="sourcePoint" />
            <mxPoint x="180" y="280" as="targetPoint" />
          </mxGeometry>
        </mxCell>
        <mxCell id="5cAc0Jf2YwoJ_Aimk7Pw-24" value="Confirmation To Send" style="ellipse;whiteSpace=wrap;html=1;" vertex="1" parent="1">
          <mxGeometry x="540" y="355" width="140" height="70" as="geometry" />
        </mxCell>
        <mxCell id="5cAc0Jf2YwoJ_Aimk7Pw-25" value="" style="endArrow=none;html=1;exitX=1;exitY=0.5;exitDx=0;exitDy=0;entryX=0.5;entryY=0.5;entryDx=0;entryDy=0;entryPerimeter=0;" edge="1" parent="1" source="5cAc0Jf2YwoJ_Aimk7Pw-24" target="5cAc0Jf2YwoJ_Aimk7Pw-13">
          <mxGeometry width="50" height="50" relative="1" as="geometry">
            <mxPoint x="140" y="410" as="sourcePoint" />
            <mxPoint x="210" y="395" as="targetPoint" />
          </mxGeometry>
        </mxCell>
        <mxCell id="5cAc0Jf2YwoJ_Aimk7Pw-26" value="" style="endArrow=none;html=1;exitX=1;exitY=0.5;exitDx=0;exitDy=0;" edge="1" parent="1" source="5cAc0Jf2YwoJ_Aimk7Pw-4" target="5cAc0Jf2YwoJ_Aimk7Pw-24">
          <mxGeometry width="50" height="50" relative="1" as="geometry">
            <mxPoint x="690" y="400" as="sourcePoint" />
            <mxPoint x="755" y="400" as="targetPoint" />
          </mxGeometry>
        </mxCell>
        <mxCell id="5cAc0Jf2YwoJ_Aimk7Pw-27" value="" style="endArrow=none;html=1;exitX=1;exitY=0.5;exitDx=0;exitDy=0;entryX=0;entryY=1;entryDx=0;entryDy=0;" edge="1" parent="1" source="5cAc0Jf2YwoJ_Aimk7Pw-5" target="5cAc0Jf2YwoJ_Aimk7Pw-24">
          <mxGeometry width="50" height="50" relative="1" as="geometry">
            <mxPoint x="540" y="345" as="sourcePoint" />
            <mxPoint x="578.8279811627467" y="371.69423704938845" as="targetPoint" />
          </mxGeometry>
        </mxCell>
        <mxCell id="5cAc0Jf2YwoJ_Aimk7Pw-28" value="" style="endArrow=none;html=1;exitX=1;exitY=0.5;exitDx=0;exitDy=0;entryX=0.5;entryY=0;entryDx=0;entryDy=0;" edge="1" parent="1" source="5cAc0Jf2YwoJ_Aimk7Pw-14" target="5cAc0Jf2YwoJ_Aimk7Pw-24">
          <mxGeometry width="50" height="50" relative="1" as="geometry">
            <mxPoint x="140" y="410" as="sourcePoint" />
            <mxPoint x="210" y="395" as="targetPoint" />
          </mxGeometry>
        </mxCell>
        <mxCell id="5cAc0Jf2YwoJ_Aimk7Pw-29" value="" style="endArrow=none;html=1;exitX=1;exitY=0.5;exitDx=0;exitDy=0;entryX=0;entryY=0.5;entryDx=0;entryDy=0;" edge="1" parent="1" source="5cAc0Jf2YwoJ_Aimk7Pw-7" target="5cAc0Jf2YwoJ_Aimk7Pw-14">
          <mxGeometry width="50" height="50" relative="1" as="geometry">
            <mxPoint x="540" y="215" as="sourcePoint" />
            <mxPoint x="620" y="365" as="targetPoint" />
          </mxGeometry>
        </mxCell>
        <mxCell id="5cAc0Jf2YwoJ_Aimk7Pw-30" value="Change Profile" style="ellipse;whiteSpace=wrap;html=1;" vertex="1" parent="1">
          <mxGeometry x="200" y="260" width="140" height="70" as="geometry" />
        </mxCell>
        <mxCell id="5cAc0Jf2YwoJ_Aimk7Pw-31" value="" style="endArrow=none;html=1;exitX=0.75;exitY=0.1;exitDx=0;exitDy=0;exitPerimeter=0;entryX=0;entryY=0.5;entryDx=0;entryDy=0;" edge="1" parent="1" source="5cAc0Jf2YwoJ_Aimk7Pw-1" target="5cAc0Jf2YwoJ_Aimk7Pw-30">
          <mxGeometry width="50" height="50" relative="1" as="geometry">
            <mxPoint x="140" y="410" as="sourcePoint" />
            <mxPoint x="210" y="395" as="targetPoint" />
          </mxGeometry>
        </mxCell>
        <mxCell id="5cAc0Jf2YwoJ_Aimk7Pw-32" value="" style="endArrow=none;html=1;exitX=0.5;exitY=0;exitDx=0;exitDy=0;exitPerimeter=0;entryX=0;entryY=0.5;entryDx=0;entryDy=0;" edge="1" parent="1" source="5cAc0Jf2YwoJ_Aimk7Pw-1" target="5cAc0Jf2YwoJ_Aimk7Pw-7">
          <mxGeometry width="50" height="50" relative="1" as="geometry">
            <mxPoint x="132.5" y="396" as="sourcePoint" />
            <mxPoint x="210" y="305" as="targetPoint" />
          </mxGeometry>
        </mxCell>
        <mxCell id="5cAc0Jf2YwoJ_Aimk7Pw-33" value="" style="endArrow=none;html=1;exitX=1;exitY=1;exitDx=0;exitDy=0;exitPerimeter=0;entryX=0;entryY=0.5;entryDx=0;entryDy=0;" edge="1" parent="1" source="5cAc0Jf2YwoJ_Aimk7Pw-1" target="5cAc0Jf2YwoJ_Aimk7Pw-15">
          <mxGeometry width="50" height="50" relative="1" as="geometry">
            <mxPoint x="140" y="410" as="sourcePoint" />
            <mxPoint x="210" y="395" as="targetPoint" />
          </mxGeometry>
        </mxCell>
        <mxCell id="5cAc0Jf2YwoJ_Aimk7Pw-34" value="" style="endArrow=none;html=1;exitX=1;exitY=0.5;exitDx=0;exitDy=0;entryX=0.5;entryY=0.5;entryDx=0;entryDy=0;entryPerimeter=0;" edge="1" parent="1" source="5cAc0Jf2YwoJ_Aimk7Pw-15" target="5cAc0Jf2YwoJ_Aimk7Pw-13">
          <mxGeometry width="50" height="50" relative="1" as="geometry">
            <mxPoint x="140" y="450" as="sourcePoint" />
            <mxPoint x="380" y="595" as="targetPoint" />
          </mxGeometry>
        </mxCell>
      </root>
    </mxGraphModel>
  </diagram>
</mxfile>
